PathFileType	4	(X/Y/Z)	output.trc
DataRate	CameraRate	NumFrames	NumMarkers	Units	OrigDataRate	OrigDataStartFrame	OrigNumFrames
100	100	15	23	m	100	1055	2812
Frame#	Time	C7			T8			EL			EM			US			RS			AA			Fore_Clus_1			Fore_Clus_2			Fore_Clus_3			Fore_Clus_4			Hum_Clus_1			Hum_Clus_2			Hum_Clus_3			Hum_Clus_4			Thor_Clus_1			Thor_Clus_2			Thor_Clus_3			Thor_Clus_4			IJ			PX			GH			Thor_Clus_5		
		X1	Y1	Z1	X2	Y2	Z2	X3	Y3	Z3	X4	Y4	Z4	X5	Y5	Z5	X6	Y6	Z6	X7	Y7	Z7	X8	Y8	Z8	X9	Y9	Z9	X10	Y10	Z10	X11	Y11	Z11	X12	Y12	Z12	X13	Y13	Z13	X14	Y14	Z14	X15	Y15	Z15	X16	Y16	Z16	X17	Y17	Z17	X18	Y18	Z18	X19	Y19	Z19	X20	Y20	Z20	X21	Y21	Z21	X22	Y22	Z22	X23	Y23	Z23
1054	10.540000	-0.048148	1.428316	-0.094298	-0.082019	1.249428	-0.146737	-0.262267	1.074831	0.063161	-0.226739	1.062511	0.010115	-0.155036	0.998452	0.269956	-0.118957	1.010973	0.232287	-0.203501	1.345583	0.020336	-0.185713	1.054893	0.222524	-0.158687	1.043758	0.268519	-0.134843	1.048818	0.255143	-0.147376	1.062587	0.200783	-0.253094	1.168435	0.096942	-0.282396	1.175329	0.044831	-0.281274	1.238782	0.040082	-0.245315	1.241365	0.087159	0.058880	1.301816	0.018963	0.014703	1.250696	0.070250	0.019216	1.301483	0.042947	0.070290	1.252980	0.036518	-0.009559	1.336141	-0.018287	0.008164	1.156344	0.021457	-0.158886	1.333053	-0.000105	0.009265	1.272770	0.062350
1055	10.550000	-0.048101	1.428279	-0.094274	-0.081960	1.249379	-0.146679	-0.262171	1.074805	0.063042	-0.226595	1.062514	0.010022	-0.154826	0.998335	0.269848	-0.118740	1.010909	0.232205	-0.203468	1.345566	0.020356	-0.185809	1.054520	0.222707	-0.158439	1.043635	0.268569	-0.134709	1.048596	0.255088	-0.147309	1.062387	0.200753	-0.253020	1.168380	0.096923	-0.282312	1.175264	0.044799	-0.281218	1.238716	0.040052	-0.245243	1.241297	0.087134	0.058887	1.301798	0.019056	0.014763	1.250598	0.070339	0.019244	1.301454	0.043002	0.070331	1.252978	0.036598	-0.009520	1.336122	-0.018238	0.008203	1.156334	0.021548	-0.158817	1.333081	-0.000047	0.009288	1.272743	0.062421
1056	10.560000	-0.048034	1.428231	-0.094265	-0.081893	1.249318	-0.146625	-0.262094	1.074801	0.062976	-0.226495	1.062529	0.009968	-0.154571	0.998257	0.269793	-0.118494	1.010884	0.232158	-0.203432	1.345562	0.020356	-0.185549	1.054497	0.222473	-0.158100	1.043822	0.268270	-0.134631	1.048422	0.255031	-0.147251	1.062255	0.200727	-0.252922	1.168340	0.096925	-0.282250	1.175216	0.044818	-0.281147	1.238682	0.040091	-0.245156	1.241259	0.087165	0.058914	1.301768	0.019114	0.014792	1.250557	0.070414	0.019283	1.301441	0.043063	0.070361	1.252938	0.036661	-0.009476	1.336093	-0.018193	0.008226	1.156316	0.021649	-0.158767	1.333112	-0.000018	0.009315	1.272739	0.062486
1057	10.570000	-0.047989	1.428163	-0.094257	-0.081857	1.249233	-0.146555	-0.262035	1.074812	0.062935	-0.226419	1.062557	0.009934	-0.154295	0.998209	0.269796	-0.118242	1.010876	0.232151	-0.203408	1.345550	0.020374	-0.185682	1.054212	0.222630	-0.158042	1.043658	0.268218	-0.134639	1.048187	0.254941	-0.147202	1.062114	0.200677	-0.252816	1.168285	0.096946	-0.282186	1.175196	0.044886	-0.281095	1.238654	0.040182	-0.245067	1.241210	0.087239	0.058981	1.301754	0.019138	0.014839	1.250449	0.070383	0.019311	1.301390	0.043116	0.070400	1.252883	0.036734	-0.009448	1.336050	-0.018146	0.008233	1.156286	0.021766	-0.158711	1.333148	0.000043	0.009323	1.272691	0.062567
1058	10.580000	-0.047919	1.428092	-0.094257	-0.081812	1.249148	-0.146489	-0.261996	1.074842	0.062942	-0.226391	1.062594	0.009932	-0.153990	0.998193	0.269839	-0.117976	1.010904	0.232171	-0.203378	1.345557	0.020377	-0.185392	1.054236	0.222279	-0.157950	1.043543	0.268181	-0.133780	1.048871	0.255335	-0.147153	1.062027	0.200656	-0.252722	1.168255	0.096973	-0.282141	1.175209	0.044964	-0.281032	1.238669	0.040298	-0.244951	1.241181	0.087317	0.059005	1.301705	0.019220	0.014997	1.250183	0.070157	0.019343	1.301360	0.043185	0.070407	1.252838	0.036818	-0.009413	1.336002	-0.018100	0.008225	1.156251	0.021887	-0.158673	1.333184	0.000069	0.009350	1.272660	0.062644
1059	10.590000	-0.047858	1.428015	-0.094252	-0.081788	1.249057	-0.146414	-0.261976	1.074884	0.062972	-0.226393	1.062640	0.009946	-0.153682	0.998197	0.269923	-0.117721	1.010945	0.232218	-0.203354	1.345566	0.020394	-0.185405	1.054128	0.222326	-0.157891	1.043427	0.268156	-0.132152	1.050409	0.256241	-0.147124	1.061960	0.200642	-0.252620	1.168245	0.097022	-0.282101	1.175255	0.045048	-0.280988	1.238717	0.040423	-0.244842	1.241183	0.087423	0.059001	1.301650	0.019333	0.014790	1.250477	0.070649	0.019371	1.301314	0.043255	0.070423	1.252780	0.036881	-0.009385	1.335947	-0.018051	0.008202	1.156209	0.022014	-0.158633	1.333220	0.000108	0.009357	1.272614	0.062728
1060	10.600000	-0.047801	1.427938	-0.094238	-0.081778	1.248970	-0.146332	-0.261973	1.074936	0.063024	-0.226427	1.062693	0.009974	-0.153384	0.998215	0.270034	-0.117485	1.010997	0.232282	-0.203333	1.345581	0.020424	-0.185357	1.054063	0.222306	-0.157821	1.043332	0.268140	-0.132284	1.050108	0.256097	-0.147111	1.061904	0.200626	-0.252565	1.168280	0.097067	-0.282085	1.175354	0.045140	-0.280933	1.238803	0.040544	-0.244728	1.241234	0.087515	0.058992	1.301595	0.019414	0.014835	1.250400	0.070731	0.019391	1.301281	0.043334	0.070418	1.252738	0.036965	-0.009363	1.335890	-0.017997	0.008167	1.156162	0.022143	-0.158593	1.333254	0.000149	0.009358	1.272595	0.062805
1061	10.610000	-0.047727	1.427873	-0.094217	-0.081764	1.248900	-0.146255	-0.261989	1.075000	0.063105	-0.226499	1.062748	0.010019	-0.153105	0.998243	0.270156	-0.117273	1.011062	0.232352	-0.203307	1.345614	0.020450	-0.185326	1.054002	0.222314	-0.157777	1.043248	0.268136	-0.132161	1.050084	0.256095	-0.147088	1.061838	0.200613	-0.252530	1.168355	0.097120	-0.282074	1.175461	0.045238	-0.280901	1.238916	0.040659	-0.244666	1.241310	0.087617	0.059001	1.301547	0.019535	0.014800	1.250390	0.070837	0.019411	1.301255	0.043389	0.070416	1.252705	0.037063	-0.009335	1.335836	-0.017939	0.008121	1.156116	0.022265	-0.158563	1.333283	0.000161	0.009351	1.272572	0.062882
1062	10.620000	-0.047681	1.427811	-0.094176	-0.081780	1.248834	-0.146164	-0.262020	1.075064	0.063184	-0.226585	1.062806	0.010062	-0.152877	0.998266	0.270288	-0.117114	1.011110	0.232429	-0.203293	1.345640	0.020511	-0.185309	1.053973	0.222334	-0.157725	1.043190	0.268136	-0.132104	1.050061	0.256110	-0.147068	1.061823	0.200625	-0.252520	1.168449	0.097174	-0.282081	1.175584	0.045305	-0.280871	1.239042	0.040728	-0.244597	1.241421	0.087692	0.058998	1.301517	0.019630	0.014791	1.250385	0.070901	0.019425	1.301251	0.043479	0.070412	1.252676	0.037147	-0.009324	1.335782	-0.017871	0.008067	1.156066	0.022384	-0.158517	1.333308	0.000207	0.009410	1.272455	0.062936
1063	10.630000	-0.047617	1.427767	-0.094124	-0.081787	1.248795	-0.146081	-0.262067	1.075135	0.063284	-0.226702	1.062863	0.010118	-0.152698	0.998280	0.270408	-0.116999	1.011154	0.232497	-0.203272	1.345682	0.020566	-0.185306	1.053935	0.222336	-0.157681	1.043136	0.268140	-0.132090	1.050008	0.256102	-0.147087	1.061788	0.200625	-0.252528	1.168536	0.097235	-0.282113	1.175689	0.045376	-0.280859	1.239157	0.040797	-0.244575	1.241518	0.087741	0.058962	1.301476	0.019761	0.014768	1.250373	0.070995	0.019416	1.301223	0.043573	0.070396	1.252663	0.037302	-0.009304	1.335736	-0.017798	0.008009	1.156021	0.022491	-0.158483	1.333325	0.000219	0.009387	1.272460	0.063032
1064	10.640000	-0.047570	1.427734	-0.094052	-0.081810	1.248771	-0.145994	-0.262127	1.075205	0.063380	-0.226830	1.062918	0.010173	-0.152592	0.998274	0.270515	-0.116950	1.011170	0.232558	-0.203259	1.345721	0.020644	-0.185318	1.053918	0.222369	-0.157728	1.043084	0.268133	-0.132095	1.049990	0.256113	-0.147100	1.061763	0.200642	-0.252552	1.168632	0.097292	-0.282153	1.175802	0.045447	-0.280841	1.239276	0.040866	-0.244565	1.241613	0.087811	0.058969	1.301451	0.019844	0.014731	1.250360	0.071083	0.019411	1.301210	0.043652	0.070375	1.252610	0.037383	-0.009294	1.335695	-0.017718	0.007947	1.155977	0.022588	-0.158439	1.333336	0.000246	0.009375	1.272442	0.063127
1065	10.650000	-0.047535	1.427713	-0.093965	-0.081843	1.248763	-0.145905	-0.262197	1.075272	0.063474	-0.226964	1.062970	0.010229	-0.152567	0.998240	0.270599	-0.116968	1.011153	0.232607	-0.203251	1.345758	0.020736	-0.185361	1.053889	0.222405	-0.157695	1.043068	0.268194	-0.132129	1.049938	0.256144	-0.147163	1.061747	0.200681	-0.252594	1.168697	0.097352	-0.282203	1.175897	0.045518	-0.280855	1.239377	0.040942	-0.244582	1.241699	0.087879	0.058946	1.301402	0.019937	0.014677	1.250319	0.071173	0.019396	1.301188	0.043732	0.070357	1.252561	0.037441	-0.009291	1.335660	-0.017631	0.007885	1.155935	0.022674	-0.158390	1.333341	0.000280	0.009320	1.272385	0.063220
1066	10.660000	-0.047490	1.427710	-0.093868	-0.081864	1.248779	-0.145827	-0.262279	1.075340	0.063577	-0.227113	1.063016	0.010293	-0.152618	0.998178	0.270651	-0.117048	1.011109	0.232638	-0.203239	1.345803	0.020821	-0.185417	1.053881	0.222454	-0.157795	1.042987	0.268184	-0.132173	1.049907	0.256182	-0.147208	1.061734	0.200725	-0.252632	1.168784	0.097462	-0.282232	1.175999	0.045597	-0.280858	1.239476	0.041029	-0.244557	1.241754	0.087953	0.058936	1.301356	0.020020	0.014639	1.250280	0.071249	0.019400	1.301152	0.043800	0.070326	1.252496	0.037520	-0.009282	1.335635	-0.017542	0.007825	1.155900	0.022745	-0.158349	1.333337	0.000289	0.009304	1.272360	0.063304
1067	10.670000	-0.047477	1.427711	-0.093755	-0.081907	1.248797	-0.145741	-0.262366	1.075400	0.063662	-0.227249	1.063058	0.010350	-0.152764	0.998078	0.270679	-0.117203	1.011013	0.232658	-0.203241	1.345829	0.020932	-0.185477	1.053870	0.222509	-0.156069	1.044297	0.269321	-0.132260	1.049867	0.256236	-0.147300	1.061722	0.200781	-0.252656	1.168843	0.097539	-0.282268	1.176068	0.045703	-0.280842	1.239563	0.041139	-0.244552	1.241819	0.088043	0.058889	1.301264	0.020155	0.014600	1.250239	0.071331	0.019383	1.301109	0.043884	0.070295	1.252440	0.037582	-0.009290	1.335612	-0.017448	0.007769	1.155865	0.022809	-0.158292	1.333329	0.000337	0.009284	1.272313	0.063370
1068	10.680000	-0.047450	1.427724	-0.093643	-0.081930	1.248833	-0.145670	-0.262462	1.075460	0.063757	-0.227392	1.063093	0.010418	-0.152982	0.997948	0.270671	-0.117412	1.010888	0.232661	-0.203238	1.345860	0.021024	-0.185556	1.053849	0.222557	-0.156348	1.044122	0.269275	-0.132374	1.049810	0.256313	-0.147349	1.061684	0.200849	-0.252667	1.168883	0.097623	-0.282293	1.176144	0.045795	-0.280822	1.239642	0.041248	-0.244515	1.241859	0.088131	0.058884	1.301206	0.020238	0.014564	1.250190	0.071394	0.019387	1.301060	0.043961	0.070258	1.252363	0.037656	-0.009290	1.335597	-0.017357	0.007718	1.155836	0.022858	-0.158248	1.333315	0.000357	0.009257	1.272275	0.063448
